<svg width="1350" height="1393" viewBox="0 0 1350 1393" fill="none" xmlns="http://www.w3.org/2000/svg">
<g id="Group 1171280639">
<g id="Group 1171280634">
<g id="Group">
<g id="Group_2" filter="url(#filter0_f_1_68740)">
<path id="Vector" d="M428.335 458.963C583.396 526.218 654.576 706.44 587.321 861.501C520.066 1016.56 339.844 1087.74 184.784 1020.49C29.7229 953.232 -41.4576 773.01 25.7974 617.949C93.0524 462.888 273.275 391.708 428.335 458.963Z" fill="url(#paint0_linear_1_68740)"/>
</g>
<g id="Group_3" filter="url(#filter1_f_1_68740)">
<path id="Vector_2" d="M383.332 452.567C542.169 494.967 636.56 658.102 594.16 816.939C551.76 975.777 388.625 1070.17 229.788 1027.77C70.9507 985.368 -23.4406 822.233 18.9594 663.396C61.3593 504.558 224.494 410.167 383.332 452.567Z" fill="url(#paint1_radial_1_68740)"/>
</g>
<g id="Group_4">
<path id="Vector_3" d="M-205.804 23.4785L462.084 473.407C545.873 529.852 596.149 631.402 594.029 739.916L581.289 1392.08L-232.161 1372.62L-205.804 23.4785Z" fill="url(#paint2_linear_1_68740)"/>
<path id="Vector_4" d="M-205.804 23.4785L462.084 473.407C545.873 529.852 596.149 631.402 594.029 739.916L581.289 1392.08L-232.161 1372.62L-205.804 23.4785Z" stroke="url(#paint3_linear_1_68740)" stroke-width="1.44377"/>
</g>
<g id="Group_5">
<path id="Vector_5" d="M-210.844 281.242L259.111 596.089C343.226 652.445 393.752 754.204 391.627 862.984L381.416 1385.64L-232.129 1370.97L-210.844 281.242Z" fill="url(#paint4_linear_1_68740)"/>
<path id="Vector_6" d="M-210.844 281.242L259.111 596.089C343.226 652.445 393.752 754.204 391.627 862.984L381.416 1385.64L-232.129 1370.97L-210.844 281.242Z" stroke="url(#paint5_linear_1_68740)" stroke-width="1.44377"/>
</g>
</g>
</g>
<g id="Group 1171280638">
<g id="Group_6">
<g id="Group_7" filter="url(#filter2_f_1_68740)">
<path id="Vector_7" d="M927.091 458.963C772.03 526.218 700.85 706.44 768.105 861.501C835.36 1016.56 1015.58 1087.74 1170.64 1020.49C1325.7 953.232 1396.88 773.01 1329.63 617.949C1262.37 462.888 1082.15 391.708 927.091 458.963Z" fill="url(#paint6_linear_1_68740)"/>
</g>
<g id="Group_8" filter="url(#filter3_f_1_68740)">
<path id="Vector_8" d="M972.095 452.567C813.258 494.967 718.866 658.102 761.266 816.939C803.666 975.777 966.801 1070.17 1125.64 1027.77C1284.48 985.368 1378.87 822.233 1336.47 663.396C1294.07 504.558 1130.93 410.167 972.095 452.567Z" fill="url(#paint7_radial_1_68740)"/>
</g>
<g id="Group_9">
<path id="Vector_9" d="M1561.23 23.4785L893.341 473.407C809.553 529.852 759.276 631.402 761.397 739.916L774.137 1392.08L1587.59 1372.62L1561.23 23.4785Z" fill="url(#paint8_linear_1_68740)"/>
<path id="Vector_10" d="M1561.23 23.4785L893.341 473.407C809.553 529.852 759.276 631.402 761.397 739.916L774.137 1392.08L1587.59 1372.62L1561.23 23.4785Z" stroke="url(#paint9_linear_1_68740)" stroke-width="1.44377"/>
</g>
<g id="Group_10">
<path id="Vector_11" d="M1566.27 281.242L1096.31 596.089C1012.2 652.445 961.674 754.204 963.799 862.984L974.01 1385.64L1587.56 1370.97L1566.27 281.242Z" fill="url(#paint10_linear_1_68740)"/>
<path id="Vector_12" d="M1566.27 281.242L1096.31 596.089C1012.2 652.445 961.674 754.204 963.799 862.984L974.01 1385.64L1587.56 1370.97L1566.27 281.242Z" stroke="url(#paint11_linear_1_68740)" stroke-width="1.44377"/>
</g>
</g>
</g>
</g>
<defs>
<filter id="filter0_f_1_68740" x="-130.977" y="302.188" width="875.073" height="875.073" filterUnits="userSpaceOnUse" color-interpolation-filters="sRGB">
<feFlood flood-opacity="0" result="BackgroundImageFix"/>
<feBlend mode="normal" in="SourceGraphic" in2="BackgroundImageFix" result="shape"/>
<feGaussianBlur stdDeviation="65.7124" result="effect1_foregroundBlur_1_68740"/>
</filter>
<filter id="filter1_f_1_68740" x="-245.385" y="188.223" width="1103.89" height="1103.89" filterUnits="userSpaceOnUse" color-interpolation-filters="sRGB">
<feFlood flood-opacity="0" result="BackgroundImageFix"/>
<feBlend mode="normal" in="SourceGraphic" in2="BackgroundImageFix" result="shape"/>
<feGaussianBlur stdDeviation="127.1" result="effect1_foregroundBlur_1_68740"/>
</filter>
<filter id="filter2_f_1_68740" x="611.33" y="302.188" width="875.073" height="875.073" filterUnits="userSpaceOnUse" color-interpolation-filters="sRGB">
<feFlood flood-opacity="0" result="BackgroundImageFix"/>
<feBlend mode="normal" in="SourceGraphic" in2="BackgroundImageFix" result="shape"/>
<feGaussianBlur stdDeviation="65.7124" result="effect1_foregroundBlur_1_68740"/>
</filter>
<filter id="filter3_f_1_68740" x="496.922" y="188.223" width="1103.89" height="1103.89" filterUnits="userSpaceOnUse" color-interpolation-filters="sRGB">
<feFlood flood-opacity="0" result="BackgroundImageFix"/>
<feBlend mode="normal" in="SourceGraphic" in2="BackgroundImageFix" result="shape"/>
<feGaussianBlur stdDeviation="127.1" result="effect1_foregroundBlur_1_68740"/>
</filter>
<linearGradient id="paint0_linear_1_68740" x1="345.423" y1="432.898" x2="188.738" y2="886.309" gradientUnits="userSpaceOnUse">
<stop stop-color="#CCD9FF"/>
<stop offset="1" stop-color="#CCD9FF"/>
</linearGradient>
<radialGradient id="paint1_radial_1_68740" cx="0" cy="0" r="1" gradientUnits="userSpaceOnUse" gradientTransform="translate(306.56 740.167) rotate(-113.808) scale(350.56 350.56)">
<stop offset="0.275818" stop-color="#115D3E"/>
<stop offset="0.588601" stop-color="#37B381"/>
<stop offset="0.754773" stop-color="#91F1C5"/>
<stop offset="0.962057" stop-color="#F4F7FF"/>
</radialGradient>
<linearGradient id="paint2_linear_1_68740" x1="560.135" y1="571.429" x2="128.531" y2="780.651" gradientUnits="userSpaceOnUse">
<stop stop-color="white" stop-opacity="0.4"/>
<stop offset="1" stop-color="white" stop-opacity="0.01"/>
</linearGradient>
<linearGradient id="paint3_linear_1_68740" x1="559.531" y1="588.481" x2="406.96" y2="664.144" gradientUnits="userSpaceOnUse">
<stop stop-color="white"/>
<stop offset="1" stop-color="white" stop-opacity="0"/>
</linearGradient>
<linearGradient id="paint4_linear_1_68740" x1="342.907" y1="700.828" x2="59.4813" y2="847.257" gradientUnits="userSpaceOnUse">
<stop stop-color="white" stop-opacity="0.4"/>
<stop offset="1" stop-color="white" stop-opacity="0.01"/>
</linearGradient>
<linearGradient id="paint5_linear_1_68740" x1="344.571" y1="673.562" x2="130.089" y2="793.771" gradientUnits="userSpaceOnUse">
<stop stop-color="white"/>
<stop offset="1" stop-color="white" stop-opacity="0"/>
</linearGradient>
<linearGradient id="paint6_linear_1_68740" x1="1010" y1="432.898" x2="1166.69" y2="886.309" gradientUnits="userSpaceOnUse">
<stop stop-color="#CCD9FF"/>
<stop offset="1" stop-color="#CCD9FF"/>
</linearGradient>
<radialGradient id="paint7_radial_1_68740" cx="0" cy="0" r="1" gradientUnits="userSpaceOnUse" gradientTransform="translate(1048.87 740.167) rotate(-66.192) scale(350.56 350.56)">
<stop offset="0.275818" stop-color="#115D3E"/>
<stop offset="0.588601" stop-color="#37B381"/>
<stop offset="0.754773" stop-color="#91F1C5"/>
<stop offset="0.962057" stop-color="#F4F7FF"/>
</radialGradient>
<linearGradient id="paint8_linear_1_68740" x1="795.291" y1="571.429" x2="1226.89" y2="780.651" gradientUnits="userSpaceOnUse">
<stop stop-color="white" stop-opacity="0.4"/>
<stop offset="1" stop-color="white" stop-opacity="0.01"/>
</linearGradient>
<linearGradient id="paint9_linear_1_68740" x1="795.895" y1="588.481" x2="948.466" y2="664.144" gradientUnits="userSpaceOnUse">
<stop stop-color="white"/>
<stop offset="1" stop-color="white" stop-opacity="0"/>
</linearGradient>
<linearGradient id="paint10_linear_1_68740" x1="1012.52" y1="700.828" x2="1295.94" y2="847.257" gradientUnits="userSpaceOnUse">
<stop stop-color="white" stop-opacity="0.4"/>
<stop offset="1" stop-color="white" stop-opacity="0.01"/>
</linearGradient>
<linearGradient id="paint11_linear_1_68740" x1="1010.85" y1="673.562" x2="1225.34" y2="793.771" gradientUnits="userSpaceOnUse">
<stop stop-color="white"/>
<stop offset="1" stop-color="white" stop-opacity="0"/>
</linearGradient>
</defs>
</svg>
